<mxfile host="Electron" modified="2023-08-29T21:04:47.213Z" agent="Mozilla/5.0 (Windows NT 10.0; Win64; x64) AppleWebKit/537.36 (KHTML, like Gecko) draw.io/21.6.5 Chrome/114.0.5735.243 Electron/25.3.1 Safari/537.36" etag="uvIwLb6ZwtKBK0o6Uzxx" version="21.6.5" type="device">
  <diagram name="Page-1" id="5EcGUtgprfLG1N1tCisy">
    <mxGraphModel dx="5867" dy="8228" grid="1" gridSize="10" guides="1" tooltips="1" connect="1" arrows="1" fold="1" page="1" pageScale="1" pageWidth="3300" pageHeight="4681" math="0" shadow="0">
      <root>
        <mxCell id="0" />
        <mxCell id="1" parent="0" />
        <mxCell id="QA4-YYf7AMVIxWVp4QsO-2" value="&lt;font style=&quot;font-size: 24px;&quot;&gt;USERS&lt;/font&gt;" style="rounded=0;whiteSpace=wrap;html=1;" parent="1" vertex="1">
          <mxGeometry x="620" y="445" width="130" height="70" as="geometry" />
        </mxCell>
        <mxCell id="QA4-YYf7AMVIxWVp4QsO-10" value="&lt;font style=&quot;font-size: 24px;&quot;&gt;password&lt;/font&gt;" style="ellipse;whiteSpace=wrap;html=1;" parent="1" vertex="1">
          <mxGeometry x="760" y="125" width="150" height="80" as="geometry" />
        </mxCell>
        <mxCell id="QA4-YYf7AMVIxWVp4QsO-11" value="&lt;font style=&quot;font-size: 24px;&quot;&gt;mobile&lt;/font&gt;" style="ellipse;whiteSpace=wrap;html=1;" parent="1" vertex="1">
          <mxGeometry x="430" y="145" width="150" height="80" as="geometry" />
        </mxCell>
        <mxCell id="QA4-YYf7AMVIxWVp4QsO-36" value="" style="endArrow=none;html=1;rounded=0;exitX=0.581;exitY=0.018;exitDx=0;exitDy=0;exitPerimeter=0;" parent="1" source="QA4-YYf7AMVIxWVp4QsO-2" target="QA4-YYf7AMVIxWVp4QsO-10" edge="1">
          <mxGeometry width="50" height="50" relative="1" as="geometry">
            <mxPoint x="930" y="635" as="sourcePoint" />
            <mxPoint x="810" y="385" as="targetPoint" />
          </mxGeometry>
        </mxCell>
        <mxCell id="QA4-YYf7AMVIxWVp4QsO-38" value="" style="endArrow=none;html=1;rounded=0;entryX=0.5;entryY=1;entryDx=0;entryDy=0;exitX=0.25;exitY=0;exitDx=0;exitDy=0;" parent="1" source="QA4-YYf7AMVIxWVp4QsO-2" target="QA4-YYf7AMVIxWVp4QsO-11" edge="1">
          <mxGeometry width="50" height="50" relative="1" as="geometry">
            <mxPoint x="930" y="635" as="sourcePoint" />
            <mxPoint x="980" y="585" as="targetPoint" />
          </mxGeometry>
        </mxCell>
        <mxCell id="YjL8MfW4gXSKr5NboPRP-1" value="&lt;font style=&quot;font-size: 36px;&quot;&gt;Admin&lt;/font&gt;" style="shape=umlActor;verticalLabelPosition=bottom;verticalAlign=top;html=1;outlineConnect=0;" parent="1" vertex="1">
          <mxGeometry x="240" y="-1660" width="150" height="190" as="geometry" />
        </mxCell>
        <mxCell id="YjL8MfW4gXSKr5NboPRP-2" value="&lt;font style=&quot;font-size: 36px;&quot;&gt;Book&amp;nbsp;&lt;br&gt;management&lt;/font&gt;" style="ellipse;whiteSpace=wrap;html=1;" parent="1" vertex="1">
          <mxGeometry x="670" y="-1520" width="320" height="120" as="geometry" />
        </mxCell>
        <mxCell id="YjL8MfW4gXSKr5NboPRP-3" value="&lt;font style=&quot;font-size: 36px;&quot;&gt;Logout&lt;/font&gt;" style="ellipse;whiteSpace=wrap;html=1;" parent="1" vertex="1">
          <mxGeometry x="490" y="-1320" width="270" height="120" as="geometry" />
        </mxCell>
        <mxCell id="YjL8MfW4gXSKr5NboPRP-4" value="&lt;font style=&quot;font-size: 36px;&quot;&gt;Category&lt;br&gt;Management&lt;/font&gt;" style="ellipse;whiteSpace=wrap;html=1;" parent="1" vertex="1">
          <mxGeometry x="690" y="-1710" width="310" height="140" as="geometry" />
        </mxCell>
        <mxCell id="YjL8MfW4gXSKr5NboPRP-5" value="&lt;font style=&quot;font-size: 36px;&quot;&gt;Login&lt;/font&gt;" style="ellipse;whiteSpace=wrap;html=1;" parent="1" vertex="1">
          <mxGeometry x="540" y="-1870" width="240" height="100" as="geometry" />
        </mxCell>
        <mxCell id="YjL8MfW4gXSKr5NboPRP-6" value="" style="endArrow=none;html=1;rounded=0;entryX=0.293;entryY=1.047;entryDx=0;entryDy=0;entryPerimeter=0;" parent="1" source="YjL8MfW4gXSKr5NboPRP-1" target="YjL8MfW4gXSKr5NboPRP-5" edge="1">
          <mxGeometry width="50" height="50" relative="1" as="geometry">
            <mxPoint x="750" y="-1460" as="sourcePoint" />
            <mxPoint x="800" y="-1510" as="targetPoint" />
          </mxGeometry>
        </mxCell>
        <mxCell id="YjL8MfW4gXSKr5NboPRP-7" value="" style="endArrow=none;html=1;rounded=0;entryX=0;entryY=0.5;entryDx=0;entryDy=0;" parent="1" source="YjL8MfW4gXSKr5NboPRP-1" target="YjL8MfW4gXSKr5NboPRP-4" edge="1">
          <mxGeometry width="50" height="50" relative="1" as="geometry">
            <mxPoint x="750" y="-1460" as="sourcePoint" />
            <mxPoint x="800" y="-1510" as="targetPoint" />
          </mxGeometry>
        </mxCell>
        <mxCell id="YjL8MfW4gXSKr5NboPRP-8" value="" style="endArrow=none;html=1;rounded=0;exitX=0.31;exitY=0.002;exitDx=0;exitDy=0;exitPerimeter=0;" parent="1" source="YjL8MfW4gXSKr5NboPRP-3" edge="1">
          <mxGeometry width="50" height="50" relative="1" as="geometry">
            <mxPoint x="750" y="-1460" as="sourcePoint" />
            <mxPoint x="400" y="-1480" as="targetPoint" />
          </mxGeometry>
        </mxCell>
        <mxCell id="YjL8MfW4gXSKr5NboPRP-9" value="" style="endArrow=none;html=1;rounded=0;entryX=0;entryY=0;entryDx=0;entryDy=0;" parent="1" target="YjL8MfW4gXSKr5NboPRP-2" edge="1">
          <mxGeometry width="50" height="50" relative="1" as="geometry">
            <mxPoint x="410" y="-1520" as="sourcePoint" />
            <mxPoint x="800" y="-1510" as="targetPoint" />
          </mxGeometry>
        </mxCell>
        <mxCell id="YjL8MfW4gXSKr5NboPRP-11" value="&lt;font style=&quot;font-size: 36px;&quot;&gt;user&lt;/font&gt;" style="shape=umlActor;verticalLabelPosition=bottom;verticalAlign=top;html=1;outlineConnect=0;" parent="1" vertex="1">
          <mxGeometry x="170" y="-2800" width="140" height="170" as="geometry" />
        </mxCell>
        <mxCell id="YjL8MfW4gXSKr5NboPRP-12" value="&lt;font style=&quot;font-size: 36px;&quot;&gt;view&lt;br&gt;book&lt;/font&gt;" style="ellipse;whiteSpace=wrap;html=1;" parent="1" vertex="1">
          <mxGeometry x="780" y="-2870" width="250" height="110" as="geometry" />
        </mxCell>
        <mxCell id="YjL8MfW4gXSKr5NboPRP-13" value="&lt;font style=&quot;font-size: 36px;&quot;&gt;view&lt;br&gt;status&lt;/font&gt;" style="ellipse;whiteSpace=wrap;html=1;" parent="1" vertex="1">
          <mxGeometry x="620" y="-2250" width="210" height="120" as="geometry" />
        </mxCell>
        <mxCell id="YjL8MfW4gXSKr5NboPRP-14" value="&lt;font style=&quot;font-size: 36px;&quot;&gt;View&amp;nbsp;&lt;br&gt;category&lt;/font&gt;" style="ellipse;whiteSpace=wrap;html=1;" parent="1" vertex="1">
          <mxGeometry x="660" y="-3020" width="270" height="100" as="geometry" />
        </mxCell>
        <mxCell id="YjL8MfW4gXSKr5NboPRP-15" value="&lt;font style=&quot;font-size: 36px;&quot;&gt;place&lt;br&gt;order&lt;/font&gt;" style="ellipse;whiteSpace=wrap;html=1;" parent="1" vertex="1">
          <mxGeometry x="370" y="-2210" width="210" height="100" as="geometry" />
        </mxCell>
        <mxCell id="YjL8MfW4gXSKr5NboPRP-16" value="&lt;font style=&quot;font-size: 36px;&quot;&gt;Login&lt;/font&gt;" style="ellipse;whiteSpace=wrap;html=1;" parent="1" vertex="1">
          <mxGeometry x="450" y="-3120" width="220" height="80" as="geometry" />
        </mxCell>
        <mxCell id="YjL8MfW4gXSKr5NboPRP-17" value="&lt;font style=&quot;font-size: 36px;&quot;&gt;Logout&lt;/font&gt;" style="ellipse;whiteSpace=wrap;html=1;" parent="1" vertex="1">
          <mxGeometry x="140" y="-2230" width="220" height="100" as="geometry" />
        </mxCell>
        <mxCell id="YjL8MfW4gXSKr5NboPRP-18" value="&lt;font style=&quot;font-size: 36px;&quot;&gt;Registration&lt;/font&gt;" style="ellipse;whiteSpace=wrap;html=1;" parent="1" vertex="1">
          <mxGeometry x="120" y="-3170" width="270" height="100" as="geometry" />
        </mxCell>
        <mxCell id="YjL8MfW4gXSKr5NboPRP-20" value="&lt;font style=&quot;font-size: 36px;&quot;&gt;update and&lt;br&gt;delete cart&lt;/font&gt;" style="ellipse;whiteSpace=wrap;html=1;" parent="1" vertex="1">
          <mxGeometry x="770" y="-2370" width="280" height="130" as="geometry" />
        </mxCell>
        <mxCell id="YjL8MfW4gXSKr5NboPRP-21" value="&lt;font style=&quot;font-size: 36px;&quot;&gt;search &lt;br&gt;book&lt;/font&gt;" style="ellipse;whiteSpace=wrap;html=1;" parent="1" vertex="1">
          <mxGeometry x="810" y="-2700" width="250" height="100" as="geometry" />
        </mxCell>
        <mxCell id="YjL8MfW4gXSKr5NboPRP-22" value="&lt;font style=&quot;font-size: 36px;&quot;&gt;Add to&lt;br&gt;cart&lt;/font&gt;" style="ellipse;whiteSpace=wrap;html=1;" parent="1" vertex="1">
          <mxGeometry x="810" y="-2530" width="250" height="110" as="geometry" />
        </mxCell>
        <mxCell id="YjL8MfW4gXSKr5NboPRP-30" value="" style="endArrow=none;html=1;rounded=0;entryX=0.38;entryY=0.008;entryDx=0;entryDy=0;entryPerimeter=0;" parent="1" target="YjL8MfW4gXSKr5NboPRP-15" edge="1">
          <mxGeometry width="50" height="50" relative="1" as="geometry">
            <mxPoint x="310" y="-2590" as="sourcePoint" />
            <mxPoint x="800" y="-2650" as="targetPoint" />
          </mxGeometry>
        </mxCell>
        <mxCell id="YjL8MfW4gXSKr5NboPRP-31" value="" style="endArrow=none;html=1;rounded=0;entryX=0.5;entryY=0;entryDx=0;entryDy=0;" parent="1" target="YjL8MfW4gXSKr5NboPRP-17" edge="1">
          <mxGeometry width="50" height="50" relative="1" as="geometry">
            <mxPoint x="250" y="-2580" as="sourcePoint" />
            <mxPoint x="800" y="-2650" as="targetPoint" />
          </mxGeometry>
        </mxCell>
        <mxCell id="YjL8MfW4gXSKr5NboPRP-32" value="" style="endArrow=none;html=1;rounded=0;entryX=0.5;entryY=1;entryDx=0;entryDy=0;" parent="1" target="YjL8MfW4gXSKr5NboPRP-18" edge="1">
          <mxGeometry width="50" height="50" relative="1" as="geometry">
            <mxPoint x="250" y="-2830" as="sourcePoint" />
            <mxPoint x="800" y="-2650" as="targetPoint" />
          </mxGeometry>
        </mxCell>
        <mxCell id="YjL8MfW4gXSKr5NboPRP-33" value="" style="endArrow=none;html=1;rounded=0;entryX=0;entryY=1;entryDx=0;entryDy=0;" parent="1" target="YjL8MfW4gXSKr5NboPRP-12" edge="1">
          <mxGeometry width="50" height="50" relative="1" as="geometry">
            <mxPoint x="340" y="-2720" as="sourcePoint" />
            <mxPoint x="800" y="-2650" as="targetPoint" />
          </mxGeometry>
        </mxCell>
        <mxCell id="YjL8MfW4gXSKr5NboPRP-34" value="" style="endArrow=none;html=1;rounded=0;entryX=0;entryY=1;entryDx=0;entryDy=0;" parent="1" target="YjL8MfW4gXSKr5NboPRP-16" edge="1">
          <mxGeometry width="50" height="50" relative="1" as="geometry">
            <mxPoint x="260" y="-2820" as="sourcePoint" />
            <mxPoint x="800" y="-2650" as="targetPoint" />
          </mxGeometry>
        </mxCell>
        <mxCell id="YjL8MfW4gXSKr5NboPRP-35" value="" style="endArrow=none;html=1;rounded=0;entryX=0.307;entryY=0.953;entryDx=0;entryDy=0;entryPerimeter=0;" parent="1" target="YjL8MfW4gXSKr5NboPRP-14" edge="1">
          <mxGeometry width="50" height="50" relative="1" as="geometry">
            <mxPoint x="330" y="-2750" as="sourcePoint" />
            <mxPoint x="800" y="-2650" as="targetPoint" />
          </mxGeometry>
        </mxCell>
        <mxCell id="YjL8MfW4gXSKr5NboPRP-36" value="" style="endArrow=none;html=1;rounded=0;entryX=0;entryY=0.5;entryDx=0;entryDy=0;" parent="1" target="YjL8MfW4gXSKr5NboPRP-21" edge="1">
          <mxGeometry width="50" height="50" relative="1" as="geometry">
            <mxPoint x="350" y="-2690" as="sourcePoint" />
            <mxPoint x="800" y="-2650" as="targetPoint" />
          </mxGeometry>
        </mxCell>
        <mxCell id="YjL8MfW4gXSKr5NboPRP-37" value="" style="endArrow=none;html=1;rounded=0;exitX=0;exitY=0.5;exitDx=0;exitDy=0;" parent="1" source="YjL8MfW4gXSKr5NboPRP-22" edge="1">
          <mxGeometry width="50" height="50" relative="1" as="geometry">
            <mxPoint x="750" y="-2600" as="sourcePoint" />
            <mxPoint x="350" y="-2670" as="targetPoint" />
          </mxGeometry>
        </mxCell>
        <mxCell id="YjL8MfW4gXSKr5NboPRP-38" value="" style="endArrow=none;html=1;rounded=0;" parent="1" target="YjL8MfW4gXSKr5NboPRP-20" edge="1">
          <mxGeometry width="50" height="50" relative="1" as="geometry">
            <mxPoint x="340" y="-2660" as="sourcePoint" />
            <mxPoint x="800" y="-2650" as="targetPoint" />
          </mxGeometry>
        </mxCell>
        <mxCell id="YjL8MfW4gXSKr5NboPRP-39" value="" style="endArrow=none;html=1;rounded=0;entryX=0;entryY=0;entryDx=0;entryDy=0;" parent="1" target="YjL8MfW4gXSKr5NboPRP-13" edge="1">
          <mxGeometry width="50" height="50" relative="1" as="geometry">
            <mxPoint x="330" y="-2640" as="sourcePoint" />
            <mxPoint x="800" y="-2650" as="targetPoint" />
          </mxGeometry>
        </mxCell>
        <mxCell id="ctO4qe_Q2N1YlDjRf3yy-3" value="&lt;font style=&quot;font-size: 24px;&quot;&gt;email &lt;/font&gt;" style="ellipse;whiteSpace=wrap;html=1;" vertex="1" parent="1">
          <mxGeometry x="270" y="205" width="150" height="80" as="geometry" />
        </mxCell>
        <mxCell id="ctO4qe_Q2N1YlDjRf3yy-4" value="" style="endArrow=none;html=1;rounded=0;entryX=1;entryY=1;entryDx=0;entryDy=0;exitX=0;exitY=0.25;exitDx=0;exitDy=0;" edge="1" parent="1" target="ctO4qe_Q2N1YlDjRf3yy-3" source="QA4-YYf7AMVIxWVp4QsO-2">
          <mxGeometry width="50" height="50" relative="1" as="geometry">
            <mxPoint x="450" y="445" as="sourcePoint" />
            <mxPoint x="810" y="585" as="targetPoint" />
          </mxGeometry>
        </mxCell>
        <mxCell id="ctO4qe_Q2N1YlDjRf3yy-5" value="&lt;font style=&quot;font-size: 24px;&quot;&gt;recent donation&lt;br&gt;date&lt;/font&gt;" style="ellipse;whiteSpace=wrap;html=1;" vertex="1" parent="1">
          <mxGeometry x="90" y="325" width="250" height="90" as="geometry" />
        </mxCell>
        <mxCell id="ctO4qe_Q2N1YlDjRf3yy-6" value="" style="endArrow=none;html=1;rounded=0;entryX=0.97;entryY=0.653;entryDx=0;entryDy=0;exitX=0;exitY=0.5;exitDx=0;exitDy=0;entryPerimeter=0;" edge="1" parent="1" target="ctO4qe_Q2N1YlDjRf3yy-5" source="QA4-YYf7AMVIxWVp4QsO-2">
          <mxGeometry width="50" height="50" relative="1" as="geometry">
            <mxPoint x="610" y="480" as="sourcePoint" />
            <mxPoint x="690" y="655" as="targetPoint" />
          </mxGeometry>
        </mxCell>
        <mxCell id="ctO4qe_Q2N1YlDjRf3yy-9" value="&lt;span style=&quot;font-size: 24px;&quot;&gt;dob&lt;/span&gt;" style="ellipse;whiteSpace=wrap;html=1;" vertex="1" parent="1">
          <mxGeometry x="130" y="435" width="160" height="80" as="geometry" />
        </mxCell>
        <mxCell id="ctO4qe_Q2N1YlDjRf3yy-10" value="" style="endArrow=none;html=1;rounded=0;entryX=0.97;entryY=0.653;entryDx=0;entryDy=0;exitX=-0.001;exitY=0.652;exitDx=0;exitDy=0;entryPerimeter=0;exitPerimeter=0;" edge="1" parent="1" target="ctO4qe_Q2N1YlDjRf3yy-9" source="QA4-YYf7AMVIxWVp4QsO-2">
          <mxGeometry width="50" height="50" relative="1" as="geometry">
            <mxPoint x="610" y="580" as="sourcePoint" />
            <mxPoint x="680" y="755" as="targetPoint" />
          </mxGeometry>
        </mxCell>
        <mxCell id="ctO4qe_Q2N1YlDjRf3yy-15" value="&lt;font style=&quot;font-size: 24px;&quot;&gt;name&lt;/font&gt;" style="ellipse;whiteSpace=wrap;html=1;" vertex="1" parent="1">
          <mxGeometry x="590" y="125" width="140" height="80" as="geometry" />
        </mxCell>
        <mxCell id="ctO4qe_Q2N1YlDjRf3yy-16" value="" style="endArrow=none;html=1;rounded=0;entryX=0.5;entryY=1;entryDx=0;entryDy=0;exitX=0.5;exitY=0;exitDx=0;exitDy=0;" edge="1" parent="1" target="ctO4qe_Q2N1YlDjRf3yy-15" source="QA4-YYf7AMVIxWVp4QsO-2">
          <mxGeometry width="50" height="50" relative="1" as="geometry">
            <mxPoint x="750" y="405" as="sourcePoint" />
            <mxPoint x="1110" y="545" as="targetPoint" />
          </mxGeometry>
        </mxCell>
        <mxCell id="ctO4qe_Q2N1YlDjRf3yy-17" value="&lt;font style=&quot;font-size: 24px;&quot;&gt;registered_on&lt;/font&gt;" style="ellipse;whiteSpace=wrap;html=1;" vertex="1" parent="1">
          <mxGeometry x="920" y="120" width="230" height="90" as="geometry" />
        </mxCell>
        <mxCell id="ctO4qe_Q2N1YlDjRf3yy-18" value="" style="endArrow=none;html=1;rounded=0;entryX=0.5;entryY=1;entryDx=0;entryDy=0;exitX=0.75;exitY=0;exitDx=0;exitDy=0;" edge="1" parent="1" target="ctO4qe_Q2N1YlDjRf3yy-17" source="QA4-YYf7AMVIxWVp4QsO-2">
          <mxGeometry width="50" height="50" relative="1" as="geometry">
            <mxPoint x="1030" y="385" as="sourcePoint" />
            <mxPoint x="1390" y="525" as="targetPoint" />
          </mxGeometry>
        </mxCell>
        <mxCell id="ctO4qe_Q2N1YlDjRf3yy-19" value="&lt;font style=&quot;font-size: 24px;&quot;&gt;role&lt;/font&gt;" style="ellipse;whiteSpace=wrap;html=1;" vertex="1" parent="1">
          <mxGeometry x="1120" y="195" width="160" height="80" as="geometry" />
        </mxCell>
        <mxCell id="ctO4qe_Q2N1YlDjRf3yy-20" value="" style="endArrow=none;html=1;rounded=0;exitX=1;exitY=0;exitDx=0;exitDy=0;" edge="1" parent="1" target="ctO4qe_Q2N1YlDjRf3yy-19" source="QA4-YYf7AMVIxWVp4QsO-2">
          <mxGeometry width="50" height="50" relative="1" as="geometry">
            <mxPoint x="1155" y="415" as="sourcePoint" />
            <mxPoint x="1515" y="555" as="targetPoint" />
          </mxGeometry>
        </mxCell>
        <mxCell id="ctO4qe_Q2N1YlDjRf3yy-21" value="&lt;font style=&quot;font-size: 24px;&quot;&gt;blood_type&lt;/font&gt;" style="ellipse;whiteSpace=wrap;html=1;" vertex="1" parent="1">
          <mxGeometry x="100" y="535" width="160" height="80" as="geometry" />
        </mxCell>
        <mxCell id="ctO4qe_Q2N1YlDjRf3yy-22" value="" style="endArrow=none;html=1;rounded=0;exitX=0;exitY=0.75;exitDx=0;exitDy=0;entryX=0.948;entryY=0.267;entryDx=0;entryDy=0;entryPerimeter=0;" edge="1" parent="1" target="ctO4qe_Q2N1YlDjRf3yy-21" source="QA4-YYf7AMVIxWVp4QsO-2">
          <mxGeometry width="50" height="50" relative="1" as="geometry">
            <mxPoint x="620" y="608" as="sourcePoint" />
            <mxPoint x="680" y="865" as="targetPoint" />
          </mxGeometry>
        </mxCell>
        <mxCell id="ctO4qe_Q2N1YlDjRf3yy-23" value="&lt;font style=&quot;font-size: 24px;&quot;&gt;antigen&lt;/font&gt;" style="ellipse;whiteSpace=wrap;html=1;" vertex="1" parent="1">
          <mxGeometry x="140" y="625" width="150" height="80" as="geometry" />
        </mxCell>
        <mxCell id="ctO4qe_Q2N1YlDjRf3yy-24" value="" style="endArrow=none;html=1;rounded=0;exitX=0;exitY=1;exitDx=0;exitDy=0;entryX=0.948;entryY=0.267;entryDx=0;entryDy=0;entryPerimeter=0;" edge="1" parent="1" target="ctO4qe_Q2N1YlDjRf3yy-23" source="QA4-YYf7AMVIxWVp4QsO-2">
          <mxGeometry width="50" height="50" relative="1" as="geometry">
            <mxPoint x="710" y="585" as="sourcePoint" />
            <mxPoint x="770" y="945" as="targetPoint" />
          </mxGeometry>
        </mxCell>
        <mxCell id="ctO4qe_Q2N1YlDjRf3yy-25" value="&lt;span style=&quot;font-size: 24px;&quot;&gt;activated&amp;nbsp;&lt;/span&gt;" style="ellipse;whiteSpace=wrap;html=1;" vertex="1" parent="1">
          <mxGeometry x="150" y="725" width="160" height="80" as="geometry" />
        </mxCell>
        <mxCell id="ctO4qe_Q2N1YlDjRf3yy-26" value="" style="endArrow=none;html=1;rounded=0;exitX=0.131;exitY=0.997;exitDx=0;exitDy=0;exitPerimeter=0;entryX=0.948;entryY=0.267;entryDx=0;entryDy=0;entryPerimeter=0;" edge="1" parent="1" target="ctO4qe_Q2N1YlDjRf3yy-25" source="QA4-YYf7AMVIxWVp4QsO-2">
          <mxGeometry width="50" height="50" relative="1" as="geometry">
            <mxPoint x="890" y="595" as="sourcePoint" />
            <mxPoint x="950" y="955" as="targetPoint" />
          </mxGeometry>
        </mxCell>
        <mxCell id="ctO4qe_Q2N1YlDjRf3yy-27" value="&lt;font style=&quot;font-size: 24px;&quot;&gt;username&lt;/font&gt;" style="ellipse;whiteSpace=wrap;html=1;" vertex="1" parent="1">
          <mxGeometry x="1210" y="285" width="150" height="80" as="geometry" />
        </mxCell>
        <mxCell id="ctO4qe_Q2N1YlDjRf3yy-28" value="" style="endArrow=none;html=1;rounded=0;exitX=1;exitY=0.25;exitDx=0;exitDy=0;" edge="1" parent="1" target="ctO4qe_Q2N1YlDjRf3yy-27" source="QA4-YYf7AMVIxWVp4QsO-2">
          <mxGeometry width="50" height="50" relative="1" as="geometry">
            <mxPoint x="815" y="580" as="sourcePoint" />
            <mxPoint x="1580" y="655" as="targetPoint" />
          </mxGeometry>
        </mxCell>
        <mxCell id="ctO4qe_Q2N1YlDjRf3yy-33" value="&lt;u style=&quot;font-size: 24px;&quot;&gt;id&lt;/u&gt;" style="ellipse;whiteSpace=wrap;html=1;" vertex="1" parent="1">
          <mxGeometry x="310" y="795" width="140" height="80" as="geometry" />
        </mxCell>
        <mxCell id="ctO4qe_Q2N1YlDjRf3yy-34" value="" style="endArrow=none;html=1;rounded=0;exitX=0.403;exitY=0.99;exitDx=0;exitDy=0;exitPerimeter=0;entryX=0.522;entryY=-0.002;entryDx=0;entryDy=0;entryPerimeter=0;" edge="1" parent="1" target="ctO4qe_Q2N1YlDjRf3yy-33" source="QA4-YYf7AMVIxWVp4QsO-2">
          <mxGeometry width="50" height="50" relative="1" as="geometry">
            <mxPoint x="803.5" y="525" as="sourcePoint" />
            <mxPoint x="376" y="773" as="targetPoint" />
          </mxGeometry>
        </mxCell>
        <mxCell id="ctO4qe_Q2N1YlDjRf3yy-116" value="&lt;font style=&quot;font-size: 24px;&quot;&gt;POST&lt;/font&gt;" style="rounded=0;whiteSpace=wrap;html=1;" vertex="1" parent="1">
          <mxGeometry x="1700" y="445" width="130" height="70" as="geometry" />
        </mxCell>
        <mxCell id="ctO4qe_Q2N1YlDjRf3yy-117" value="&lt;font style=&quot;font-size: 24px;&quot;&gt;post_category&lt;/font&gt;" style="ellipse;whiteSpace=wrap;html=1;" vertex="1" parent="1">
          <mxGeometry x="1850" y="165" width="160" height="80" as="geometry" />
        </mxCell>
        <mxCell id="ctO4qe_Q2N1YlDjRf3yy-118" value="&lt;font style=&quot;font-size: 24px;&quot;&gt;antigen&lt;/font&gt;" style="ellipse;whiteSpace=wrap;html=1;" vertex="1" parent="1">
          <mxGeometry x="1520" y="195" width="150" height="80" as="geometry" />
        </mxCell>
        <mxCell id="ctO4qe_Q2N1YlDjRf3yy-119" value="" style="endArrow=none;html=1;rounded=0;" edge="1" parent="1" source="ctO4qe_Q2N1YlDjRf3yy-116" target="ctO4qe_Q2N1YlDjRf3yy-117">
          <mxGeometry width="50" height="50" relative="1" as="geometry">
            <mxPoint x="2010" y="635" as="sourcePoint" />
            <mxPoint x="1890" y="385" as="targetPoint" />
          </mxGeometry>
        </mxCell>
        <mxCell id="ctO4qe_Q2N1YlDjRf3yy-120" value="" style="endArrow=none;html=1;rounded=0;entryX=0.5;entryY=1;entryDx=0;entryDy=0;exitX=0.25;exitY=0;exitDx=0;exitDy=0;" edge="1" parent="1" source="ctO4qe_Q2N1YlDjRf3yy-116" target="ctO4qe_Q2N1YlDjRf3yy-118">
          <mxGeometry width="50" height="50" relative="1" as="geometry">
            <mxPoint x="2010" y="635" as="sourcePoint" />
            <mxPoint x="2060" y="585" as="targetPoint" />
          </mxGeometry>
        </mxCell>
        <mxCell id="ctO4qe_Q2N1YlDjRf3yy-121" value="&lt;font style=&quot;font-size: 24px;&quot;&gt;&lt;u&gt;id&lt;/u&gt;&lt;/font&gt;" style="ellipse;whiteSpace=wrap;html=1;" vertex="1" parent="1">
          <mxGeometry x="1390" y="255" width="150" height="80" as="geometry" />
        </mxCell>
        <mxCell id="ctO4qe_Q2N1YlDjRf3yy-122" value="" style="endArrow=none;html=1;rounded=0;entryX=1;entryY=1;entryDx=0;entryDy=0;exitX=0;exitY=0.25;exitDx=0;exitDy=0;" edge="1" parent="1" source="ctO4qe_Q2N1YlDjRf3yy-116" target="ctO4qe_Q2N1YlDjRf3yy-121">
          <mxGeometry width="50" height="50" relative="1" as="geometry">
            <mxPoint x="1530" y="445" as="sourcePoint" />
            <mxPoint x="1890" y="585" as="targetPoint" />
          </mxGeometry>
        </mxCell>
        <mxCell id="ctO4qe_Q2N1YlDjRf3yy-127" value="&lt;font style=&quot;font-size: 24px;&quot;&gt;created_on&lt;/font&gt;" style="ellipse;whiteSpace=wrap;html=1;" vertex="1" parent="1">
          <mxGeometry x="1680" y="165" width="140" height="80" as="geometry" />
        </mxCell>
        <mxCell id="ctO4qe_Q2N1YlDjRf3yy-128" value="" style="endArrow=none;html=1;rounded=0;entryX=0.5;entryY=1;entryDx=0;entryDy=0;exitX=0.5;exitY=0;exitDx=0;exitDy=0;" edge="1" parent="1" source="ctO4qe_Q2N1YlDjRf3yy-116" target="ctO4qe_Q2N1YlDjRf3yy-127">
          <mxGeometry width="50" height="50" relative="1" as="geometry">
            <mxPoint x="1830" y="405" as="sourcePoint" />
            <mxPoint x="2190" y="545" as="targetPoint" />
          </mxGeometry>
        </mxCell>
        <mxCell id="ctO4qe_Q2N1YlDjRf3yy-129" value="&lt;font style=&quot;font-size: 24px;&quot;&gt;type&lt;/font&gt;" style="ellipse;whiteSpace=wrap;html=1;" vertex="1" parent="1">
          <mxGeometry x="2010" y="175" width="230" height="90" as="geometry" />
        </mxCell>
        <mxCell id="ctO4qe_Q2N1YlDjRf3yy-130" value="" style="endArrow=none;html=1;rounded=0;entryX=0.5;entryY=1;entryDx=0;entryDy=0;exitX=1;exitY=0;exitDx=0;exitDy=0;" edge="1" parent="1" source="ctO4qe_Q2N1YlDjRf3yy-116" target="ctO4qe_Q2N1YlDjRf3yy-129">
          <mxGeometry width="50" height="50" relative="1" as="geometry">
            <mxPoint x="2110" y="385" as="sourcePoint" />
            <mxPoint x="2470" y="525" as="targetPoint" />
          </mxGeometry>
        </mxCell>
        <mxCell id="ctO4qe_Q2N1YlDjRf3yy-131" value="&lt;font style=&quot;font-size: 24px;&quot;&gt;user_id&lt;/font&gt;" style="ellipse;whiteSpace=wrap;html=1;" vertex="1" parent="1">
          <mxGeometry x="2240" y="235" width="160" height="80" as="geometry" />
        </mxCell>
        <mxCell id="ctO4qe_Q2N1YlDjRf3yy-132" value="" style="endArrow=none;html=1;rounded=0;exitX=1;exitY=0.5;exitDx=0;exitDy=0;" edge="1" parent="1" source="ctO4qe_Q2N1YlDjRf3yy-116" target="ctO4qe_Q2N1YlDjRf3yy-131">
          <mxGeometry width="50" height="50" relative="1" as="geometry">
            <mxPoint x="2235" y="415" as="sourcePoint" />
            <mxPoint x="2595" y="555" as="targetPoint" />
          </mxGeometry>
        </mxCell>
        <mxCell id="ctO4qe_Q2N1YlDjRf3yy-143" value="&lt;font style=&quot;font-size: 24px;&quot;&gt;user_address&lt;/font&gt;" style="rounded=0;whiteSpace=wrap;html=1;" vertex="1" parent="1">
          <mxGeometry x="400" y="1335" width="160" height="70" as="geometry" />
        </mxCell>
        <mxCell id="ctO4qe_Q2N1YlDjRf3yy-144" value="&lt;font style=&quot;font-size: 24px;&quot;&gt;locality&lt;/font&gt;" style="ellipse;whiteSpace=wrap;html=1;" vertex="1" parent="1">
          <mxGeometry x="330" y="1575" width="150" height="80" as="geometry" />
        </mxCell>
        <mxCell id="ctO4qe_Q2N1YlDjRf3yy-145" value="&lt;font style=&quot;font-size: 24px;&quot;&gt;city&lt;/font&gt;" style="ellipse;whiteSpace=wrap;html=1;" vertex="1" parent="1">
          <mxGeometry x="90" y="1375" width="150" height="80" as="geometry" />
        </mxCell>
        <mxCell id="ctO4qe_Q2N1YlDjRf3yy-146" value="" style="endArrow=none;html=1;rounded=0;" edge="1" parent="1" source="ctO4qe_Q2N1YlDjRf3yy-143" target="ctO4qe_Q2N1YlDjRf3yy-144">
          <mxGeometry width="50" height="50" relative="1" as="geometry">
            <mxPoint x="710" y="1525" as="sourcePoint" />
            <mxPoint x="590" y="1275" as="targetPoint" />
          </mxGeometry>
        </mxCell>
        <mxCell id="ctO4qe_Q2N1YlDjRf3yy-147" value="" style="endArrow=none;html=1;rounded=0;exitX=0;exitY=0.25;exitDx=0;exitDy=0;" edge="1" parent="1" source="ctO4qe_Q2N1YlDjRf3yy-143" target="ctO4qe_Q2N1YlDjRf3yy-145">
          <mxGeometry width="50" height="50" relative="1" as="geometry">
            <mxPoint x="710" y="1525" as="sourcePoint" />
            <mxPoint x="760" y="1475" as="targetPoint" />
          </mxGeometry>
        </mxCell>
        <mxCell id="ctO4qe_Q2N1YlDjRf3yy-148" value="&lt;font style=&quot;font-size: 24px;&quot;&gt;district&lt;/font&gt;" style="ellipse;whiteSpace=wrap;html=1;" vertex="1" parent="1">
          <mxGeometry x="130" y="1505" width="150" height="80" as="geometry" />
        </mxCell>
        <mxCell id="ctO4qe_Q2N1YlDjRf3yy-149" value="" style="endArrow=none;html=1;rounded=0;entryX=0.949;entryY=0.227;entryDx=0;entryDy=0;exitX=0;exitY=0.5;exitDx=0;exitDy=0;entryPerimeter=0;" edge="1" parent="1" source="ctO4qe_Q2N1YlDjRf3yy-143" target="ctO4qe_Q2N1YlDjRf3yy-148">
          <mxGeometry width="50" height="50" relative="1" as="geometry">
            <mxPoint x="230" y="1335" as="sourcePoint" />
            <mxPoint x="590" y="1475" as="targetPoint" />
          </mxGeometry>
        </mxCell>
        <mxCell id="ctO4qe_Q2N1YlDjRf3yy-150" value="&lt;font style=&quot;font-size: 24px;&quot;&gt;&lt;u&gt;user_id&lt;/u&gt;&lt;/font&gt;" style="ellipse;whiteSpace=wrap;html=1;" vertex="1" parent="1">
          <mxGeometry x="70" y="1255" width="140" height="80" as="geometry" />
        </mxCell>
        <mxCell id="ctO4qe_Q2N1YlDjRf3yy-151" value="" style="endArrow=none;html=1;rounded=0;entryX=1;entryY=0.5;entryDx=0;entryDy=0;exitX=0;exitY=0;exitDx=0;exitDy=0;" edge="1" parent="1" source="ctO4qe_Q2N1YlDjRf3yy-143" target="ctO4qe_Q2N1YlDjRf3yy-150">
          <mxGeometry width="50" height="50" relative="1" as="geometry">
            <mxPoint x="530" y="1295" as="sourcePoint" />
            <mxPoint x="890" y="1435" as="targetPoint" />
          </mxGeometry>
        </mxCell>
        <mxCell id="ctO4qe_Q2N1YlDjRf3yy-152" value="&lt;font style=&quot;font-size: 24px;&quot;&gt;state&lt;/font&gt;" style="ellipse;whiteSpace=wrap;html=1;" vertex="1" parent="1">
          <mxGeometry x="510" y="1575" width="230" height="90" as="geometry" />
        </mxCell>
        <mxCell id="ctO4qe_Q2N1YlDjRf3yy-153" value="" style="endArrow=none;html=1;rounded=0;entryX=0.416;entryY=0.031;entryDx=0;entryDy=0;exitX=0.851;exitY=0.97;exitDx=0;exitDy=0;exitPerimeter=0;entryPerimeter=0;" edge="1" parent="1" source="ctO4qe_Q2N1YlDjRf3yy-143" target="ctO4qe_Q2N1YlDjRf3yy-152">
          <mxGeometry width="50" height="50" relative="1" as="geometry">
            <mxPoint x="810" y="1275" as="sourcePoint" />
            <mxPoint x="1170" y="1415" as="targetPoint" />
          </mxGeometry>
        </mxCell>
        <mxCell id="ctO4qe_Q2N1YlDjRf3yy-154" value="&lt;font style=&quot;font-size: 24px;&quot;&gt;zip&lt;/font&gt;" style="ellipse;whiteSpace=wrap;html=1;" vertex="1" parent="1">
          <mxGeometry x="670" y="1435" width="160" height="80" as="geometry" />
        </mxCell>
        <mxCell id="ctO4qe_Q2N1YlDjRf3yy-155" value="" style="endArrow=none;html=1;rounded=0;exitX=1;exitY=0.5;exitDx=0;exitDy=0;" edge="1" parent="1" source="ctO4qe_Q2N1YlDjRf3yy-143" target="ctO4qe_Q2N1YlDjRf3yy-154">
          <mxGeometry width="50" height="50" relative="1" as="geometry">
            <mxPoint x="935" y="1305" as="sourcePoint" />
            <mxPoint x="1295" y="1445" as="targetPoint" />
          </mxGeometry>
        </mxCell>
        <mxCell id="ctO4qe_Q2N1YlDjRf3yy-195" value="&lt;font style=&quot;font-size: 24px;&quot;&gt;camp_registration&lt;/font&gt;" style="rounded=0;whiteSpace=wrap;html=1;" vertex="1" parent="1">
          <mxGeometry x="1055" y="950" width="200" height="70" as="geometry" />
        </mxCell>
        <mxCell id="ctO4qe_Q2N1YlDjRf3yy-196" value="&lt;font style=&quot;font-size: 24px;&quot;&gt;is_donated&lt;/font&gt;" style="ellipse;whiteSpace=wrap;html=1;" vertex="1" parent="1">
          <mxGeometry x="1195" y="670" width="150" height="80" as="geometry" />
        </mxCell>
        <mxCell id="ctO4qe_Q2N1YlDjRf3yy-198" value="" style="endArrow=none;html=1;rounded=0;" edge="1" parent="1" source="ctO4qe_Q2N1YlDjRf3yy-195" target="ctO4qe_Q2N1YlDjRf3yy-196">
          <mxGeometry width="50" height="50" relative="1" as="geometry">
            <mxPoint x="1435" y="1140" as="sourcePoint" />
            <mxPoint x="1315" y="890" as="targetPoint" />
          </mxGeometry>
        </mxCell>
        <mxCell id="ctO4qe_Q2N1YlDjRf3yy-202" value="&lt;font style=&quot;font-size: 24px;&quot;&gt;&lt;u&gt;id&lt;/u&gt;&lt;/font&gt;" style="ellipse;whiteSpace=wrap;html=1;" vertex="1" parent="1">
          <mxGeometry x="975" y="660" width="140" height="80" as="geometry" />
        </mxCell>
        <mxCell id="ctO4qe_Q2N1YlDjRf3yy-203" value="" style="endArrow=none;html=1;rounded=0;entryX=0.5;entryY=1;entryDx=0;entryDy=0;exitX=0.5;exitY=0;exitDx=0;exitDy=0;" edge="1" parent="1" source="ctO4qe_Q2N1YlDjRf3yy-195" target="ctO4qe_Q2N1YlDjRf3yy-202">
          <mxGeometry width="50" height="50" relative="1" as="geometry">
            <mxPoint x="1255" y="910" as="sourcePoint" />
            <mxPoint x="1615" y="1050" as="targetPoint" />
          </mxGeometry>
        </mxCell>
        <mxCell id="ctO4qe_Q2N1YlDjRf3yy-204" value="&lt;font style=&quot;font-size: 24px;&quot;&gt;camp_id&lt;/font&gt;" style="ellipse;whiteSpace=wrap;html=1;" vertex="1" parent="1">
          <mxGeometry x="1400" y="710" width="230" height="90" as="geometry" />
        </mxCell>
        <mxCell id="ctO4qe_Q2N1YlDjRf3yy-205" value="" style="endArrow=none;html=1;rounded=0;entryX=0.5;entryY=1;entryDx=0;entryDy=0;exitX=1;exitY=0;exitDx=0;exitDy=0;" edge="1" parent="1" source="ctO4qe_Q2N1YlDjRf3yy-195" target="ctO4qe_Q2N1YlDjRf3yy-204">
          <mxGeometry width="50" height="50" relative="1" as="geometry">
            <mxPoint x="1535" y="890" as="sourcePoint" />
            <mxPoint x="1895" y="1030" as="targetPoint" />
          </mxGeometry>
        </mxCell>
        <mxCell id="ctO4qe_Q2N1YlDjRf3yy-206" value="&lt;font style=&quot;font-size: 24px;&quot;&gt;user_id&lt;/font&gt;" style="ellipse;whiteSpace=wrap;html=1;" vertex="1" parent="1">
          <mxGeometry x="1630" y="790" width="160" height="80" as="geometry" />
        </mxCell>
        <mxCell id="ctO4qe_Q2N1YlDjRf3yy-207" value="" style="endArrow=none;html=1;rounded=0;exitX=1;exitY=0.5;exitDx=0;exitDy=0;" edge="1" parent="1" source="ctO4qe_Q2N1YlDjRf3yy-195" target="ctO4qe_Q2N1YlDjRf3yy-206">
          <mxGeometry width="50" height="50" relative="1" as="geometry">
            <mxPoint x="1660" y="920" as="sourcePoint" />
            <mxPoint x="2020" y="1060" as="targetPoint" />
          </mxGeometry>
        </mxCell>
        <mxCell id="ctO4qe_Q2N1YlDjRf3yy-208" value="&lt;font style=&quot;font-size: 24px;&quot;&gt;bood_camp&lt;/font&gt;" style="rounded=0;whiteSpace=wrap;html=1;" vertex="1" parent="1">
          <mxGeometry x="1970" y="1055" width="220" height="70" as="geometry" />
        </mxCell>
        <mxCell id="ctO4qe_Q2N1YlDjRf3yy-209" value="&lt;font style=&quot;font-size: 24px;&quot;&gt;post_category&lt;/font&gt;" style="ellipse;whiteSpace=wrap;html=1;" vertex="1" parent="1">
          <mxGeometry x="2210" y="795" width="150" height="80" as="geometry" />
        </mxCell>
        <mxCell id="ctO4qe_Q2N1YlDjRf3yy-210" value="&lt;font style=&quot;font-size: 24px;&quot;&gt;&lt;u&gt;id&lt;/u&gt;&lt;/font&gt;" style="ellipse;whiteSpace=wrap;html=1;" vertex="1" parent="1">
          <mxGeometry x="1880" y="805" width="150" height="80" as="geometry" />
        </mxCell>
        <mxCell id="ctO4qe_Q2N1YlDjRf3yy-211" value="" style="endArrow=none;html=1;rounded=0;" edge="1" parent="1" source="ctO4qe_Q2N1YlDjRf3yy-208" target="ctO4qe_Q2N1YlDjRf3yy-209">
          <mxGeometry width="50" height="50" relative="1" as="geometry">
            <mxPoint x="2370" y="1245" as="sourcePoint" />
            <mxPoint x="2250" y="995" as="targetPoint" />
          </mxGeometry>
        </mxCell>
        <mxCell id="ctO4qe_Q2N1YlDjRf3yy-212" value="" style="endArrow=none;html=1;rounded=0;entryX=0.5;entryY=1;entryDx=0;entryDy=0;exitX=0.25;exitY=0;exitDx=0;exitDy=0;" edge="1" parent="1" source="ctO4qe_Q2N1YlDjRf3yy-208" target="ctO4qe_Q2N1YlDjRf3yy-210">
          <mxGeometry width="50" height="50" relative="1" as="geometry">
            <mxPoint x="2370" y="1245" as="sourcePoint" />
            <mxPoint x="2420" y="1195" as="targetPoint" />
          </mxGeometry>
        </mxCell>
        <mxCell id="ctO4qe_Q2N1YlDjRf3yy-215" value="&lt;font style=&quot;font-size: 24px;&quot;&gt;created_on&lt;/font&gt;" style="ellipse;whiteSpace=wrap;html=1;" vertex="1" parent="1">
          <mxGeometry x="2040" y="775" width="140" height="80" as="geometry" />
        </mxCell>
        <mxCell id="ctO4qe_Q2N1YlDjRf3yy-216" value="" style="endArrow=none;html=1;rounded=0;entryX=0.5;entryY=1;entryDx=0;entryDy=0;exitX=0.5;exitY=0;exitDx=0;exitDy=0;" edge="1" parent="1" source="ctO4qe_Q2N1YlDjRf3yy-208" target="ctO4qe_Q2N1YlDjRf3yy-215">
          <mxGeometry width="50" height="50" relative="1" as="geometry">
            <mxPoint x="2190" y="1015" as="sourcePoint" />
            <mxPoint x="2550" y="1155" as="targetPoint" />
          </mxGeometry>
        </mxCell>
        <mxCell id="ctO4qe_Q2N1YlDjRf3yy-217" value="&lt;font style=&quot;font-size: 24px;&quot;&gt;type&lt;/font&gt;" style="ellipse;whiteSpace=wrap;html=1;" vertex="1" parent="1">
          <mxGeometry x="2370" y="785" width="230" height="90" as="geometry" />
        </mxCell>
        <mxCell id="ctO4qe_Q2N1YlDjRf3yy-218" value="" style="endArrow=none;html=1;rounded=0;entryX=0.5;entryY=1;entryDx=0;entryDy=0;exitX=1;exitY=0;exitDx=0;exitDy=0;" edge="1" parent="1" source="ctO4qe_Q2N1YlDjRf3yy-208" target="ctO4qe_Q2N1YlDjRf3yy-217">
          <mxGeometry width="50" height="50" relative="1" as="geometry">
            <mxPoint x="2470" y="995" as="sourcePoint" />
            <mxPoint x="2830" y="1135" as="targetPoint" />
          </mxGeometry>
        </mxCell>
        <mxCell id="ctO4qe_Q2N1YlDjRf3yy-219" value="&lt;font style=&quot;font-size: 24px;&quot;&gt;user_id&lt;/font&gt;" style="ellipse;whiteSpace=wrap;html=1;" vertex="1" parent="1">
          <mxGeometry x="2600" y="845" width="160" height="80" as="geometry" />
        </mxCell>
        <mxCell id="ctO4qe_Q2N1YlDjRf3yy-220" value="" style="endArrow=none;html=1;rounded=0;exitX=1;exitY=0.5;exitDx=0;exitDy=0;" edge="1" parent="1" source="ctO4qe_Q2N1YlDjRf3yy-208" target="ctO4qe_Q2N1YlDjRf3yy-219">
          <mxGeometry width="50" height="50" relative="1" as="geometry">
            <mxPoint x="2595" y="1025" as="sourcePoint" />
            <mxPoint x="2955" y="1165" as="targetPoint" />
          </mxGeometry>
        </mxCell>
        <mxCell id="ctO4qe_Q2N1YlDjRf3yy-234" value="&lt;font style=&quot;font-size: 24px;&quot;&gt;user_id&lt;/font&gt;" style="ellipse;whiteSpace=wrap;html=1;" vertex="1" parent="1">
          <mxGeometry x="2660" y="975" width="160" height="80" as="geometry" />
        </mxCell>
        <mxCell id="ctO4qe_Q2N1YlDjRf3yy-235" value="" style="endArrow=none;html=1;rounded=0;exitX=1;exitY=0.75;exitDx=0;exitDy=0;entryX=0;entryY=0.5;entryDx=0;entryDy=0;" edge="1" parent="1" target="ctO4qe_Q2N1YlDjRf3yy-234" source="ctO4qe_Q2N1YlDjRf3yy-208">
          <mxGeometry width="50" height="50" relative="1" as="geometry">
            <mxPoint x="2250" y="1205" as="sourcePoint" />
            <mxPoint x="2665.2064422437625" y="1014.1943978223517" as="targetPoint" />
          </mxGeometry>
        </mxCell>
        <mxCell id="ctO4qe_Q2N1YlDjRf3yy-236" value="&lt;span style=&quot;font-size: 24px;&quot;&gt;blood_banks&lt;/span&gt;" style="rounded=0;whiteSpace=wrap;html=1;" vertex="1" parent="1">
          <mxGeometry x="1240" y="1370" width="160" height="70" as="geometry" />
        </mxCell>
        <mxCell id="ctO4qe_Q2N1YlDjRf3yy-237" value="&lt;font style=&quot;font-size: 24px;&quot;&gt;mobile&lt;/font&gt;" style="ellipse;whiteSpace=wrap;html=1;" vertex="1" parent="1">
          <mxGeometry x="1050" y="1640" width="150" height="80" as="geometry" />
        </mxCell>
        <mxCell id="ctO4qe_Q2N1YlDjRf3yy-238" value="&lt;font style=&quot;font-size: 24px;&quot;&gt;&lt;u&gt;id&lt;/u&gt;&lt;/font&gt;" style="ellipse;whiteSpace=wrap;html=1;" vertex="1" parent="1">
          <mxGeometry x="890" y="1290" width="150" height="80" as="geometry" />
        </mxCell>
        <mxCell id="ctO4qe_Q2N1YlDjRf3yy-239" value="" style="endArrow=none;html=1;rounded=0;exitX=0.138;exitY=1.01;exitDx=0;exitDy=0;exitPerimeter=0;" edge="1" parent="1" source="ctO4qe_Q2N1YlDjRf3yy-236" target="ctO4qe_Q2N1YlDjRf3yy-237">
          <mxGeometry width="50" height="50" relative="1" as="geometry">
            <mxPoint x="1550" y="1560" as="sourcePoint" />
            <mxPoint x="1430" y="1310" as="targetPoint" />
          </mxGeometry>
        </mxCell>
        <mxCell id="ctO4qe_Q2N1YlDjRf3yy-240" value="" style="endArrow=none;html=1;rounded=0;exitX=0;exitY=0.25;exitDx=0;exitDy=0;" edge="1" parent="1" source="ctO4qe_Q2N1YlDjRf3yy-236" target="ctO4qe_Q2N1YlDjRf3yy-238">
          <mxGeometry width="50" height="50" relative="1" as="geometry">
            <mxPoint x="1550" y="1560" as="sourcePoint" />
            <mxPoint x="1600" y="1510" as="targetPoint" />
          </mxGeometry>
        </mxCell>
        <mxCell id="ctO4qe_Q2N1YlDjRf3yy-241" value="&lt;font style=&quot;font-size: 24px;&quot;&gt;close_at&lt;/font&gt;" style="ellipse;whiteSpace=wrap;html=1;" vertex="1" parent="1">
          <mxGeometry x="910" y="1420" width="150" height="80" as="geometry" />
        </mxCell>
        <mxCell id="ctO4qe_Q2N1YlDjRf3yy-242" value="" style="endArrow=none;html=1;rounded=0;entryX=0.949;entryY=0.227;entryDx=0;entryDy=0;exitX=0;exitY=0.5;exitDx=0;exitDy=0;entryPerimeter=0;" edge="1" parent="1" source="ctO4qe_Q2N1YlDjRf3yy-236" target="ctO4qe_Q2N1YlDjRf3yy-241">
          <mxGeometry width="50" height="50" relative="1" as="geometry">
            <mxPoint x="1070" y="1370" as="sourcePoint" />
            <mxPoint x="1430" y="1510" as="targetPoint" />
          </mxGeometry>
        </mxCell>
        <mxCell id="ctO4qe_Q2N1YlDjRf3yy-245" value="&lt;font style=&quot;font-size: 24px;&quot;&gt;name&lt;/font&gt;" style="ellipse;whiteSpace=wrap;html=1;" vertex="1" parent="1">
          <mxGeometry x="1230" y="1640" width="150" height="90" as="geometry" />
        </mxCell>
        <mxCell id="ctO4qe_Q2N1YlDjRf3yy-246" value="" style="endArrow=none;html=1;rounded=0;entryX=0.416;entryY=0.031;entryDx=0;entryDy=0;exitX=0.329;exitY=1.005;exitDx=0;exitDy=0;entryPerimeter=0;exitPerimeter=0;" edge="1" parent="1" source="ctO4qe_Q2N1YlDjRf3yy-236" target="ctO4qe_Q2N1YlDjRf3yy-245">
          <mxGeometry width="50" height="50" relative="1" as="geometry">
            <mxPoint x="1650" y="1310" as="sourcePoint" />
            <mxPoint x="2010" y="1450" as="targetPoint" />
          </mxGeometry>
        </mxCell>
        <mxCell id="ctO4qe_Q2N1YlDjRf3yy-247" value="&lt;font style=&quot;font-size: 24px;&quot;&gt;open_at&lt;/font&gt;" style="ellipse;whiteSpace=wrap;html=1;" vertex="1" parent="1">
          <mxGeometry x="1400" y="1630" width="160" height="80" as="geometry" />
        </mxCell>
        <mxCell id="ctO4qe_Q2N1YlDjRf3yy-248" value="" style="endArrow=none;html=1;rounded=0;exitX=0.75;exitY=1;exitDx=0;exitDy=0;" edge="1" parent="1" source="ctO4qe_Q2N1YlDjRf3yy-236" target="ctO4qe_Q2N1YlDjRf3yy-247">
          <mxGeometry width="50" height="50" relative="1" as="geometry">
            <mxPoint x="1775" y="1340" as="sourcePoint" />
            <mxPoint x="2135" y="1480" as="targetPoint" />
          </mxGeometry>
        </mxCell>
        <mxCell id="ctO4qe_Q2N1YlDjRf3yy-251" value="&lt;font style=&quot;font-size: 24px;&quot;&gt;email&lt;/font&gt;" style="ellipse;whiteSpace=wrap;html=1;" vertex="1" parent="1">
          <mxGeometry x="900" y="1590" width="150" height="80" as="geometry" />
        </mxCell>
        <mxCell id="ctO4qe_Q2N1YlDjRf3yy-252" value="" style="endArrow=none;html=1;rounded=0;exitX=0;exitY=1;exitDx=0;exitDy=0;" edge="1" parent="1" target="ctO4qe_Q2N1YlDjRf3yy-251" source="ctO4qe_Q2N1YlDjRf3yy-236">
          <mxGeometry width="50" height="50" relative="1" as="geometry">
            <mxPoint x="1069" y="1450" as="sourcePoint" />
            <mxPoint x="1190" y="1320" as="targetPoint" />
          </mxGeometry>
        </mxCell>
        <mxCell id="ctO4qe_Q2N1YlDjRf3yy-253" value="&lt;font style=&quot;font-size: 24px;&quot;&gt;&lt;u&gt;regid&lt;/u&gt;&lt;/font&gt;" style="ellipse;whiteSpace=wrap;html=1;" vertex="1" parent="1">
          <mxGeometry x="1575" y="1600" width="160" height="80" as="geometry" />
        </mxCell>
        <mxCell id="ctO4qe_Q2N1YlDjRf3yy-254" value="" style="endArrow=none;html=1;rounded=0;exitX=1;exitY=1;exitDx=0;exitDy=0;" edge="1" parent="1" target="ctO4qe_Q2N1YlDjRf3yy-253" source="ctO4qe_Q2N1YlDjRf3yy-236">
          <mxGeometry width="50" height="50" relative="1" as="geometry">
            <mxPoint x="1490" y="1370" as="sourcePoint" />
            <mxPoint x="2225" y="1410" as="targetPoint" />
          </mxGeometry>
        </mxCell>
        <mxCell id="ctO4qe_Q2N1YlDjRf3yy-255" value="&lt;font style=&quot;font-size: 24px;&quot;&gt;registered_on&lt;/font&gt;" style="ellipse;whiteSpace=wrap;html=1;" vertex="1" parent="1">
          <mxGeometry x="1635" y="1440" width="160" height="80" as="geometry" />
        </mxCell>
        <mxCell id="ctO4qe_Q2N1YlDjRf3yy-256" value="" style="endArrow=none;html=1;rounded=0;exitX=1;exitY=0.75;exitDx=0;exitDy=0;" edge="1" parent="1" target="ctO4qe_Q2N1YlDjRf3yy-255" source="ctO4qe_Q2N1YlDjRf3yy-236">
          <mxGeometry width="50" height="50" relative="1" as="geometry">
            <mxPoint x="1560" y="1240" as="sourcePoint" />
            <mxPoint x="2295" y="1280" as="targetPoint" />
          </mxGeometry>
        </mxCell>
        <mxCell id="ctO4qe_Q2N1YlDjRf3yy-257" value="&lt;font style=&quot;font-size: 24px;&quot;&gt;uid&lt;/font&gt;" style="ellipse;whiteSpace=wrap;html=1;" vertex="1" parent="1">
          <mxGeometry x="1590" y="1280" width="160" height="80" as="geometry" />
        </mxCell>
        <mxCell id="ctO4qe_Q2N1YlDjRf3yy-258" value="" style="endArrow=none;html=1;rounded=0;exitX=1;exitY=0.25;exitDx=0;exitDy=0;" edge="1" parent="1" target="ctO4qe_Q2N1YlDjRf3yy-257" source="ctO4qe_Q2N1YlDjRf3yy-236">
          <mxGeometry width="50" height="50" relative="1" as="geometry">
            <mxPoint x="1430" y="1326.5" as="sourcePoint" />
            <mxPoint x="2325" y="1183.5" as="targetPoint" />
          </mxGeometry>
        </mxCell>
        <mxCell id="ctO4qe_Q2N1YlDjRf3yy-259" value="&lt;font style=&quot;font-size: 24px;&quot;&gt;blood_repository&lt;/font&gt;" style="rounded=0;whiteSpace=wrap;html=1;" vertex="1" parent="1">
          <mxGeometry x="1920" y="1340" width="230" height="70" as="geometry" />
        </mxCell>
        <mxCell id="ctO4qe_Q2N1YlDjRf3yy-268" value="&lt;font style=&quot;font-size: 24px;&quot;&gt;antigen&lt;/font&gt;" style="ellipse;whiteSpace=wrap;html=1;" vertex="1" parent="1">
          <mxGeometry x="2150" y="1600" width="160" height="80" as="geometry" />
        </mxCell>
        <mxCell id="ctO4qe_Q2N1YlDjRf3yy-269" value="" style="endArrow=none;html=1;rounded=0;exitX=0.75;exitY=1;exitDx=0;exitDy=0;" edge="1" parent="1" source="ctO4qe_Q2N1YlDjRf3yy-259" target="ctO4qe_Q2N1YlDjRf3yy-268">
          <mxGeometry width="50" height="50" relative="1" as="geometry">
            <mxPoint x="2525" y="1310" as="sourcePoint" />
            <mxPoint x="2885" y="1450" as="targetPoint" />
          </mxGeometry>
        </mxCell>
        <mxCell id="ctO4qe_Q2N1YlDjRf3yy-272" value="&lt;font style=&quot;font-size: 24px;&quot;&gt;type&lt;/font&gt;" style="ellipse;whiteSpace=wrap;html=1;" vertex="1" parent="1">
          <mxGeometry x="2350" y="1520" width="160" height="80" as="geometry" />
        </mxCell>
        <mxCell id="ctO4qe_Q2N1YlDjRf3yy-273" value="" style="endArrow=none;html=1;rounded=0;exitX=1;exitY=1;exitDx=0;exitDy=0;" edge="1" parent="1" source="ctO4qe_Q2N1YlDjRf3yy-259" target="ctO4qe_Q2N1YlDjRf3yy-272">
          <mxGeometry width="50" height="50" relative="1" as="geometry">
            <mxPoint x="2240" y="1340" as="sourcePoint" />
            <mxPoint x="2975" y="1380" as="targetPoint" />
          </mxGeometry>
        </mxCell>
        <mxCell id="ctO4qe_Q2N1YlDjRf3yy-274" value="&lt;font style=&quot;font-size: 24px;&quot;&gt;availability&lt;/font&gt;" style="ellipse;whiteSpace=wrap;html=1;" vertex="1" parent="1">
          <mxGeometry x="2420" y="1390" width="160" height="80" as="geometry" />
        </mxCell>
        <mxCell id="ctO4qe_Q2N1YlDjRf3yy-275" value="" style="endArrow=none;html=1;rounded=0;exitX=1;exitY=0.75;exitDx=0;exitDy=0;" edge="1" parent="1" source="ctO4qe_Q2N1YlDjRf3yy-259" target="ctO4qe_Q2N1YlDjRf3yy-274">
          <mxGeometry width="50" height="50" relative="1" as="geometry">
            <mxPoint x="2310" y="1210" as="sourcePoint" />
            <mxPoint x="3045" y="1250" as="targetPoint" />
          </mxGeometry>
        </mxCell>
        <mxCell id="ctO4qe_Q2N1YlDjRf3yy-276" value="&lt;font style=&quot;font-size: 24px;&quot;&gt;bank&lt;/font&gt;" style="ellipse;whiteSpace=wrap;html=1;" vertex="1" parent="1">
          <mxGeometry x="2400" y="1230" width="160" height="80" as="geometry" />
        </mxCell>
        <mxCell id="ctO4qe_Q2N1YlDjRf3yy-277" value="" style="endArrow=none;html=1;rounded=0;exitX=1;exitY=0.25;exitDx=0;exitDy=0;" edge="1" parent="1" source="ctO4qe_Q2N1YlDjRf3yy-259" target="ctO4qe_Q2N1YlDjRf3yy-276">
          <mxGeometry width="50" height="50" relative="1" as="geometry">
            <mxPoint x="2180" y="1296.5" as="sourcePoint" />
            <mxPoint x="3075" y="1153.5" as="targetPoint" />
          </mxGeometry>
        </mxCell>
        <mxCell id="ctO4qe_Q2N1YlDjRf3yy-278" value="&lt;font style=&quot;font-size: 24px;&quot;&gt;email_activation_codes&lt;/font&gt;" style="rounded=0;whiteSpace=wrap;html=1;" vertex="1" parent="1">
          <mxGeometry x="1082.5" y="1880" width="300" height="70" as="geometry" />
        </mxCell>
        <mxCell id="ctO4qe_Q2N1YlDjRf3yy-279" value="&lt;font style=&quot;font-size: 24px;&quot;&gt;email&lt;/font&gt;" style="ellipse;whiteSpace=wrap;html=1;" vertex="1" parent="1">
          <mxGeometry x="892.5" y="2150" width="150" height="80" as="geometry" />
        </mxCell>
        <mxCell id="ctO4qe_Q2N1YlDjRf3yy-280" value="&lt;font style=&quot;font-size: 24px;&quot;&gt;&lt;u&gt;id&lt;/u&gt;&lt;/font&gt;" style="ellipse;whiteSpace=wrap;html=1;" vertex="1" parent="1">
          <mxGeometry x="852.5" y="1780" width="150" height="80" as="geometry" />
        </mxCell>
        <mxCell id="ctO4qe_Q2N1YlDjRf3yy-281" value="" style="endArrow=none;html=1;rounded=0;exitX=0;exitY=1;exitDx=0;exitDy=0;" edge="1" parent="1" source="ctO4qe_Q2N1YlDjRf3yy-278" target="ctO4qe_Q2N1YlDjRf3yy-279">
          <mxGeometry width="50" height="50" relative="1" as="geometry">
            <mxPoint x="1532.5" y="2070" as="sourcePoint" />
            <mxPoint x="1412.5" y="1820" as="targetPoint" />
          </mxGeometry>
        </mxCell>
        <mxCell id="ctO4qe_Q2N1YlDjRf3yy-282" value="" style="endArrow=none;html=1;rounded=0;exitX=0;exitY=0.25;exitDx=0;exitDy=0;" edge="1" parent="1" source="ctO4qe_Q2N1YlDjRf3yy-278" target="ctO4qe_Q2N1YlDjRf3yy-280">
          <mxGeometry width="50" height="50" relative="1" as="geometry">
            <mxPoint x="1532.5" y="2070" as="sourcePoint" />
            <mxPoint x="1582.5" y="2020" as="targetPoint" />
          </mxGeometry>
        </mxCell>
        <mxCell id="ctO4qe_Q2N1YlDjRf3yy-285" value="&lt;font style=&quot;font-size: 24px;&quot;&gt;otp&lt;/font&gt;" style="ellipse;whiteSpace=wrap;html=1;" vertex="1" parent="1">
          <mxGeometry x="1212.5" y="2150" width="150" height="90" as="geometry" />
        </mxCell>
        <mxCell id="ctO4qe_Q2N1YlDjRf3yy-286" value="" style="endArrow=none;html=1;rounded=0;entryX=0.416;entryY=0.031;entryDx=0;entryDy=0;exitX=0.329;exitY=1.005;exitDx=0;exitDy=0;entryPerimeter=0;exitPerimeter=0;" edge="1" parent="1" source="ctO4qe_Q2N1YlDjRf3yy-278" target="ctO4qe_Q2N1YlDjRf3yy-285">
          <mxGeometry width="50" height="50" relative="1" as="geometry">
            <mxPoint x="1632.5" y="1820" as="sourcePoint" />
            <mxPoint x="1992.5" y="1960" as="targetPoint" />
          </mxGeometry>
        </mxCell>
        <mxCell id="ctO4qe_Q2N1YlDjRf3yy-293" value="&lt;font style=&quot;font-size: 24px;&quot;&gt;validity&lt;/font&gt;" style="ellipse;whiteSpace=wrap;html=1;" vertex="1" parent="1">
          <mxGeometry x="1502.5" y="2091" width="160" height="80" as="geometry" />
        </mxCell>
        <mxCell id="ctO4qe_Q2N1YlDjRf3yy-294" value="" style="endArrow=none;html=1;rounded=0;exitX=1;exitY=0.75;exitDx=0;exitDy=0;" edge="1" parent="1" source="ctO4qe_Q2N1YlDjRf3yy-278" target="ctO4qe_Q2N1YlDjRf3yy-293">
          <mxGeometry width="50" height="50" relative="1" as="geometry">
            <mxPoint x="1542.5" y="1750" as="sourcePoint" />
            <mxPoint x="2277.5" y="1790" as="targetPoint" />
          </mxGeometry>
        </mxCell>
        <mxCell id="ctO4qe_Q2N1YlDjRf3yy-295" value="&lt;font style=&quot;font-size: 24px;&quot;&gt;code&lt;/font&gt;" style="ellipse;whiteSpace=wrap;html=1;" vertex="1" parent="1">
          <mxGeometry x="1492.5" y="1760" width="160" height="80" as="geometry" />
        </mxCell>
        <mxCell id="ctO4qe_Q2N1YlDjRf3yy-296" value="" style="endArrow=none;html=1;rounded=0;exitX=1;exitY=0.25;exitDx=0;exitDy=0;" edge="1" parent="1" source="ctO4qe_Q2N1YlDjRf3yy-278" target="ctO4qe_Q2N1YlDjRf3yy-295">
          <mxGeometry width="50" height="50" relative="1" as="geometry">
            <mxPoint x="1412.5" y="1836.5" as="sourcePoint" />
            <mxPoint x="2307.5" y="1693.5" as="targetPoint" />
          </mxGeometry>
        </mxCell>
        <mxCell id="ctO4qe_Q2N1YlDjRf3yy-297" value="" style="rhombus;whiteSpace=wrap;html=1;" vertex="1" parent="1">
          <mxGeometry x="1225" y="435" width="65" height="90" as="geometry" />
        </mxCell>
        <mxCell id="ctO4qe_Q2N1YlDjRf3yy-298" value="&lt;font style=&quot;font-size: 24px;&quot;&gt;has&lt;/font&gt;" style="rhombus;whiteSpace=wrap;html=1;" vertex="1" parent="1">
          <mxGeometry x="430" y="1030" width="80" height="80" as="geometry" />
        </mxCell>
        <mxCell id="ctO4qe_Q2N1YlDjRf3yy-299" value="&lt;font style=&quot;font-size: 24px;&quot;&gt;has&lt;/font&gt;" style="rhombus;whiteSpace=wrap;html=1;" vertex="1" parent="1">
          <mxGeometry x="710" y="910" width="80" height="80" as="geometry" />
        </mxCell>
        <mxCell id="ctO4qe_Q2N1YlDjRf3yy-300" value="" style="rhombus;whiteSpace=wrap;html=1;" vertex="1" parent="1">
          <mxGeometry x="1595" y="1070" width="80" height="80" as="geometry" />
        </mxCell>
        <mxCell id="ctO4qe_Q2N1YlDjRf3yy-302" value="" style="fontSize=12;html=1;endArrow=ERoneToMany;rounded=0;entryX=0;entryY=0.5;entryDx=0;entryDy=0;endSize=25;exitX=1;exitY=0.5;exitDx=0;exitDy=0;" edge="1" parent="1" source="ctO4qe_Q2N1YlDjRf3yy-297" target="ctO4qe_Q2N1YlDjRf3yy-116">
          <mxGeometry width="100" height="100" relative="1" as="geometry">
            <mxPoint x="1292.5" y="480" as="sourcePoint" />
            <mxPoint x="1447.5" y="515" as="targetPoint" />
          </mxGeometry>
        </mxCell>
        <mxCell id="ctO4qe_Q2N1YlDjRf3yy-306" value="" style="fontSize=12;html=1;endArrow=ERmandOne;rounded=0;exitX=0.5;exitY=1;exitDx=0;exitDy=0;entryX=0.447;entryY=0.023;entryDx=0;entryDy=0;entryPerimeter=0;endSize=24;" edge="1" parent="1" source="ctO4qe_Q2N1YlDjRf3yy-298" target="ctO4qe_Q2N1YlDjRf3yy-143">
          <mxGeometry width="100" height="100" relative="1" as="geometry">
            <mxPoint x="620" y="1395" as="sourcePoint" />
            <mxPoint x="540" y="1415" as="targetPoint" />
          </mxGeometry>
        </mxCell>
        <mxCell id="ctO4qe_Q2N1YlDjRf3yy-307" value="" style="fontSize=12;html=1;endArrow=ERmandOne;rounded=0;entryX=0.614;entryY=1.003;entryDx=0;entryDy=0;entryPerimeter=0;exitX=0.5;exitY=0;exitDx=0;exitDy=0;endSize=26;" edge="1" parent="1" source="ctO4qe_Q2N1YlDjRf3yy-298" target="QA4-YYf7AMVIxWVp4QsO-2">
          <mxGeometry width="100" height="100" relative="1" as="geometry">
            <mxPoint x="410" y="1155" as="sourcePoint" />
            <mxPoint x="510" y="1055" as="targetPoint" />
            <Array as="points">
              <mxPoint x="470" y="965" />
              <mxPoint x="700" y="965" />
            </Array>
          </mxGeometry>
        </mxCell>
        <mxCell id="ctO4qe_Q2N1YlDjRf3yy-309" value="" style="fontSize=12;html=1;endArrow=ERmany;rounded=0;entryX=0;entryY=0.5;entryDx=0;entryDy=0;endSize=25;exitX=0.5;exitY=1;exitDx=0;exitDy=0;" edge="1" parent="1" source="ctO4qe_Q2N1YlDjRf3yy-299" target="ctO4qe_Q2N1YlDjRf3yy-195">
          <mxGeometry width="100" height="100" relative="1" as="geometry">
            <mxPoint x="720" y="1285" as="sourcePoint" />
            <mxPoint x="670" y="755" as="targetPoint" />
            <Array as="points" />
          </mxGeometry>
        </mxCell>
        <mxCell id="ctO4qe_Q2N1YlDjRf3yy-310" value="" style="fontSize=12;html=1;endArrow=ERmandOne;rounded=0;entryX=0.921;entryY=0.997;entryDx=0;entryDy=0;exitX=0.5;exitY=0;exitDx=0;exitDy=0;entryPerimeter=0;endSize=27;" edge="1" parent="1" source="ctO4qe_Q2N1YlDjRf3yy-299" target="QA4-YYf7AMVIxWVp4QsO-2">
          <mxGeometry width="100" height="100" relative="1" as="geometry">
            <mxPoint x="170" y="1195" as="sourcePoint" />
            <mxPoint x="270" y="1095" as="targetPoint" />
          </mxGeometry>
        </mxCell>
        <mxCell id="ctO4qe_Q2N1YlDjRf3yy-311" value="" style="fontSize=12;html=1;endArrow=ERmandOne;rounded=0;exitX=1;exitY=0.5;exitDx=0;exitDy=0;entryX=0.005;entryY=0.694;entryDx=0;entryDy=0;entryPerimeter=0;endSize=24;" edge="1" parent="1" source="ctO4qe_Q2N1YlDjRf3yy-300" target="ctO4qe_Q2N1YlDjRf3yy-208">
          <mxGeometry width="100" height="100" relative="1" as="geometry">
            <mxPoint x="1660" y="1555" as="sourcePoint" />
            <mxPoint x="1760" y="1455" as="targetPoint" />
          </mxGeometry>
        </mxCell>
        <mxCell id="ctO4qe_Q2N1YlDjRf3yy-312" value="" style="fontSize=12;html=1;endArrow=ERmany;rounded=0;entryX=0.5;entryY=1;entryDx=0;entryDy=0;exitX=0;exitY=0.5;exitDx=0;exitDy=0;endSize=25;" edge="1" parent="1" source="ctO4qe_Q2N1YlDjRf3yy-300" target="ctO4qe_Q2N1YlDjRf3yy-195">
          <mxGeometry width="100" height="100" relative="1" as="geometry">
            <mxPoint x="1135" y="1190" as="sourcePoint" />
            <mxPoint x="1235" y="1090" as="targetPoint" />
            <Array as="points">
              <mxPoint x="1155" y="1110" />
            </Array>
          </mxGeometry>
        </mxCell>
        <mxCell id="ctO4qe_Q2N1YlDjRf3yy-313" value="" style="fontSize=12;html=1;endArrow=ERmandOne;rounded=0;exitX=0;exitY=0.5;exitDx=0;exitDy=0;endSize=24;" edge="1" parent="1" source="ctO4qe_Q2N1YlDjRf3yy-297">
          <mxGeometry width="100" height="100" relative="1" as="geometry">
            <mxPoint x="900" y="495" as="sourcePoint" />
            <mxPoint x="750" y="480" as="targetPoint" />
          </mxGeometry>
        </mxCell>
      </root>
    </mxGraphModel>
  </diagram>
</mxfile>
